<?xml version="1.0" standalone="no"?>
<!DOCTYPE svg PUBLIC "-//W3C//DTD SVG 20010904//EN"
 "http://www.w3.org/TR/2001/REC-SVG-20010904/DTD/svg10.dtd">
<svg id="svg" xmlns="http://www.w3.org/2000/svg" xmlns:xlink="http://www.w3.org/1999/xlink" width="512" height="512" viewBox="0, 0, 512,512"><g id="svgg">
	 <style>
		path {
			fill: #0F145B;
		}
		@media ( prefers-color-scheme: dark ) {
			path {
				fill: #43C1C5;
			}
		}
	</style>
<path id="path0" d="M328.474 56.999 C 324.508 58.605,311.922 75.744,308.244 84.548 C 306.945 87.657,305.963 96.364,306.982 95.734 C 307.334 95.516,307.774 93.248,307.959 90.695 C 308.640 81.273,323.331 59.032,329.965 57.377 C 333.190 56.573,349.113 66.773,347.363 68.522 C 347.134 68.751,344.557 66.778,341.637 64.136 C 332.644 56.001,328.975 56.125,322.308 64.789 C 313.321 76.469,308.636 85.756,308.537 92.090 C 308.461 96.951,303.086 101.538,266.365 128.078 C 261.942 131.274,252.820 138.162,246.093 143.384 L 233.864 152.878 175.330 153.386 C 143.137 153.666,106.426 154.230,93.750 154.641 C 48.286 156.114,45.311 156.175,51.953 155.494 C 55.391 155.142,72.617 154.467,90.234 153.994 C 107.852 153.521,128.418 152.946,135.938 152.716 C 143.457 152.486,168.526 152.254,191.647 152.199 L 233.685 152.101 242.970 144.858 C 256.801 134.069,270.062 124.153,275.781 120.323 C 286.568 113.100,306.666 97.031,305.887 96.252 C 305.680 96.045,303.262 97.946,300.513 100.477 C 297.764 103.007,290.895 108.418,285.250 112.500 C 273.997 120.636,250.399 138.177,240.239 145.959 L 233.785 150.902 217.869 150.832 C 152.853 150.546,45.428 153.833,45.899 156.094 C 46.007 156.613,45.544 160.463,44.870 164.651 C 40.604 191.164,45.944 230.384,58.194 262.500 C 63.021 275.156,66.648 281.229,76.392 292.969 L 80.607 298.047 75.811 292.969 C 63.845 280.301,53.572 257.847,47.586 231.278 C 46.412 226.069,46.177 225.519,46.514 228.768 C 47.684 240.072,59.279 272.025,65.644 281.486 C 71.071 289.552,81.114 300.022,88.736 305.560 C 92.353 308.188,95.316 310.913,95.320 311.615 C 95.355 317.469,105.174 329.090,113.559 333.202 C 137.025 344.708,223.902 348.445,251.021 339.114 C 261.579 335.482,273.622 325.178,273.403 319.964 C 273.384 319.511,272.707 320.392,271.898 321.922 C 261.285 341.995,223.354 348.120,153.906 340.976 C 115.665 337.042,99.611 329.052,96.487 312.400 C 96.136 310.528,95.265 309.222,93.783 308.347 C 90.089 306.165,80.348 298.298,80.791 297.855 C 81.021 297.625,82.570 298.667,84.234 300.170 C 85.897 301.673,89.390 304.350,91.995 306.119 C 96.143 308.936,96.797 309.728,97.265 312.499 C 100.509 331.695,122.886 339.229,185.547 342.221 C 243.408 344.983,270.459 336.066,273.845 313.112 C 274.230 310.498,274.814 309.291,275.850 308.962 C 280.931 307.350,295.688 294.731,302.024 286.581 C 318.696 265.136,329.813 205.253,325.639 159.375 L 325.106 153.516 321.936 153.074 C 320.193 152.831,318.337 152.897,317.811 153.222 C 317.282 153.549,318.762 153.944,321.123 154.106 L 325.391 154.398 320.326 154.543 L 315.261 154.688 319.545 150.980 C 321.901 148.941,328.281 143.140,333.722 138.090 C 342.114 130.301,344.012 128.897,346.222 128.847 C 352.149 128.712,360.862 123.073,368.157 114.652 C 376.178 105.393,376.528 104.040,372.156 99.200 C 370.592 97.469,369.497 95.868,369.722 95.642 C 370.335 95.030,374.984 100.900,375.506 102.945 C 377.251 109.782,355.715 129.688,346.573 129.688 C 343.693 129.687,342.877 130.247,335.984 136.945 C 331.876 140.937,326.406 146.075,323.828 148.363 C 321.250 150.651,320.195 151.816,321.484 150.952 C 322.773 150.088,326.263 147.147,329.239 144.417 C 332.215 141.687,334.852 139.453,335.099 139.453 C 335.345 139.453,335.466 139.211,335.368 138.915 C 334.857 137.383,343.823 130.784,346.655 130.608 C 352.990 130.213,362.995 123.143,371.279 113.207 C 378.210 104.893,378.144 103.664,370.272 94.539 C 367.238 91.022,362.367 84.923,359.449 80.986 C 350.874 69.419,335.981 56.169,331.702 56.300 C 330.809 56.327,329.356 56.641,328.474 56.999 M335.136 68.422 C 339.971 74.481,347.632 81.556,357.147 88.748 C 377.208 103.912,377.307 105.525,358.740 114.611 C 347.010 120.351,346.114 120.258,337.364 112.380 C 333.357 108.773,326.613 102.866,322.379 99.255 L 314.679 92.690 314.988 87.844 C 315.372 81.809,318.848 74.611,324.369 68.417 C 329.376 62.799,330.650 62.800,335.136 68.422 M327.105 66.426 C 321.889 70.529,315.625 82.787,315.625 88.891 L 315.625 92.594 324.389 100.008 C 329.210 104.086,335.715 109.841,338.845 112.797 C 345.796 119.362,347.262 119.430,358.776 113.715 C 376.397 104.969,376.222 103.902,354.512 87.617 C 350.333 84.483,343.259 78.077,338.791 73.381 C 329.936 64.074,330.027 64.128,327.105 66.426 M334.437 69.923 C 340.465 76.743,350.141 85.513,358.037 91.314 C 362.660 94.710,365.469 97.276,365.143 97.805 C 364.845 98.286,364.948 98.465,365.370 98.204 C 366.508 97.501,371.094 102.005,371.094 103.825 C 371.094 105.813,366.447 109.048,356.950 113.670 C 347.361 118.337,346.028 118.274,340.200 112.884 C 337.641 110.517,331.263 104.980,326.027 100.579 L 316.508 92.578 316.457 88.650 C 316.391 83.559,320.236 75.391,325.382 69.690 C 329.767 64.832,329.942 64.836,334.437 69.923 M359.636 82.324 C 370.136 95.928,370.102 95.881,368.533 94.631 C 367.793 94.041,364.028 89.471,360.166 84.475 C 356.305 79.478,351.834 73.809,350.232 71.875 C 347.372 68.423,347.366 68.402,349.897 70.703 C 351.315 71.992,355.697 77.222,359.636 82.324 M334.882 125.747 C 334.329 126.411,331.505 129.715,328.607 133.090 C 325.709 136.465,320.636 142.750,317.333 147.056 L 311.328 154.886 297.656 154.337 C 290.137 154.036,279.414 153.476,273.828 153.094 C 268.242 152.712,260.580 152.386,256.800 152.371 L 249.928 152.344 258.383 145.034 C 263.034 141.014,272.982 132.000,280.490 125.003 C 287.998 118.006,297.820 109.333,302.316 105.731 L 310.492 99.181 323.190 111.861 C 334.092 122.748,335.745 124.712,334.882 125.747 M302.822 106.258 C 298.631 109.606,287.405 119.557,277.874 128.371 C 268.344 137.185,258.666 145.921,256.367 147.784 L 252.186 151.172 256.367 151.334 C 258.666 151.423,267.578 151.857,276.172 152.298 C 284.766 152.739,296.191 153.310,301.563 153.566 L 311.328 154.031 314.556 149.477 C 316.332 146.971,321.605 140.352,326.275 134.766 L 334.766 124.609 322.604 112.390 L 310.442 100.170 302.822 106.258 M322.513 113.388 L 333.697 124.824 327.591 132.012 C 324.232 135.966,319.164 142.246,316.328 145.967 L 311.171 152.734 300.312 152.494 C 294.340 152.363,284.883 151.938,279.297 151.550 C 273.711 151.162,265.848 150.762,261.824 150.661 L 254.507 150.477 259.477 146.137 C 262.210 143.750,268.949 137.578,274.452 132.422 C 294.057 114.051,309.518 101.053,310.931 101.755 C 311.149 101.864,316.361 107.099,322.513 113.388 M326.118 157.031 C 330.413 175.918,327.457 213.632,319.054 247.166 C 317.560 253.127,316.481 258.148,316.656 258.323 C 317.580 259.247,323.938 231.544,326.096 217.188 C 329.482 194.669,329.667 161.232,326.434 156.250 C 325.871 155.382,325.789 155.584,326.118 157.031 M43.795 161.068 C 41.959 169.627,41.191 185.361,42.059 196.611 C 42.925 207.838,45.255 224.537,45.870 223.922 C 46.064 223.728,45.672 220.108,45.000 215.878 C 42.130 197.826,41.923 175.194,44.506 161.788 C 45.565 156.286,44.954 155.666,43.795 161.068 M119.141 160.061 C 140.195 160.516,172.278 160.988,190.435 161.109 C 212.031 161.252,223.345 161.598,223.150 162.109 C 222.812 163.000,255.522 162.359,278.906 161.016 C 286.855 160.560,299.552 159.968,307.120 159.701 L 320.880 159.216 321.768 165.187 C 326.469 196.796,315.729 255.447,301.251 277.224 C 295.320 286.147,277.175 301.563,272.605 301.563 C 271.893 301.562,268.289 302.978,264.597 304.708 C 205.730 332.294,116.636 322.533,81.250 284.621 C 61.623 263.592,44.830 205.557,47.232 167.055 L 47.784 158.203 64.322 158.718 C 73.417 159.002,98.086 159.606,119.141 160.061 M48.044 167.352 C 46.754 186.277,51.069 214.370,58.939 238.281 C 61.649 246.515,61.416 243.534,58.641 234.462 C 51.283 210.408,47.519 184.767,48.814 167.504 L 49.378 159.974 61.213 160.486 C 87.142 161.608,133.866 162.472,159.766 162.309 C 184.235 162.155,184.933 162.118,166.406 161.964 C 141.235 161.753,75.789 160.323,60.044 159.639 L 48.604 159.142 48.044 167.352 M320.164 165.625 C 321.848 183.917,320.598 205.591,316.681 226.046 C 315.625 231.563,314.884 236.449,315.036 236.904 C 315.521 238.360,319.531 216.624,320.813 205.587 C 322.154 194.045,321.905 167.751,320.405 162.500 C 319.806 160.400,319.750 161.126,320.164 165.625 M282.031 161.724 C 277.949 161.992,284.453 162.052,296.484 161.857 C 308.516 161.662,318.506 161.375,318.685 161.220 C 319.191 160.781,290.342 161.178,282.031 161.724 M209.206 163.077 C 211.476 163.235,214.992 163.234,217.018 163.073 C 219.045 162.913,217.188 162.783,212.891 162.785 C 208.594 162.787,206.936 162.919,209.206 163.077 M259.210 163.079 C 261.913 163.232,266.131 163.231,268.585 163.076 C 271.039 162.922,268.828 162.797,263.672 162.798 C 258.516 162.800,256.508 162.926,259.210 163.079 M231.486 163.864 C 235.698 164.005,242.377 164.004,246.330 163.863 C 250.282 163.721,246.836 163.606,238.672 163.607 C 230.508 163.608,227.274 163.723,231.486 163.864 M314.124 239.183 C 314.009 241.597,306.995 262.436,304.508 267.755 C 301.036 275.180,300.787 275.781,301.186 275.781 C 303.205 275.781,315.632 241.441,314.563 238.816 C 314.351 238.295,314.159 238.456,314.124 239.183 M62.102 248.438 C 69.780 274.426,86.840 294.069,111.012 304.755 C 124.727 310.818,147.227 317.347,150.221 316.134 C 150.744 315.922,150.413 315.721,149.485 315.687 C 145.271 315.533,125.749 309.928,116.668 306.265 C 89.581 295.340,76.612 282.425,65.659 255.469 C 62.374 247.385,60.972 244.614,62.102 248.438 M314.588 264.757 C 312.167 276.858,296.513 296.623,281.902 306.024 C 275.888 309.894,275.076 310.695,274.634 313.198 C 274.360 314.748,273.962 316.719,273.749 317.578 C 273.451 318.783,273.527 318.873,274.081 317.969 C 274.476 317.324,275.037 315.477,275.327 313.863 C 275.801 311.224,276.577 310.445,283.044 306.116 C 298.373 295.854,317.783 270.145,315.461 263.179 C 315.269 262.604,314.876 263.314,314.588 264.757 M296.411 281.353 C 291.002 288.113,276.645 299.134,271.875 300.187 C 270.801 300.424,266.055 302.270,261.328 304.288 C 249.056 309.527,240.745 312.276,230.469 314.493 C 225.527 315.559,223.352 316.235,225.635 315.995 C 233.455 315.172,247.269 311.094,258.594 306.263 C 264.824 303.605,271.030 301.154,272.385 300.815 C 277.961 299.420,296.897 283.924,299.914 278.286 C 301.437 275.440,300.452 276.302,296.411 281.353 M109.375 316.260 C 110.020 316.395,113.661 317.729,117.467 319.225 C 154.926 333.950,222.590 332.782,261.313 316.742 C 263.276 315.928,259.160 321.762,256.036 324.219 C 241.482 335.667,157.637 340.715,128.952 331.871 C 118.029 328.503,106.976 320.149,107.043 315.312 C 107.051 314.758,107.259 314.730,107.629 315.234 C 107.945 315.664,108.730 316.126,109.375 316.260 M108.594 317.123 C 108.594 320.500,121.749 329.549,128.516 330.827 C 129.805 331.070,129.084 330.607,126.913 329.797 C 119.420 327.003,109.432 319.773,110.555 317.956 C 110.760 317.623,110.403 317.150,109.761 316.903 C 109.119 316.657,108.594 316.756,108.594 317.123 M152.539 316.945 C 153.291 317.141,154.521 317.141,155.273 316.945 C 156.025 316.748,155.410 316.588,153.906 316.588 C 152.402 316.588,151.787 316.748,152.539 316.945 M217.383 316.945 C 218.135 317.141,219.365 317.141,220.117 316.945 C 220.869 316.748,220.254 316.588,218.750 316.588 C 217.246 316.588,216.631 316.748,217.383 316.945 M162.500 318.073 C 169.032 318.709,202.630 318.705,209.766 318.067 C 212.773 317.798,202.227 317.578,186.328 317.578 C 170.430 317.578,159.707 317.801,162.500 318.073 M113.487 319.121 C 141.641 335.449,213.284 335.798,257.486 319.823 C 258.786 319.353,258.742 319.547,257.150 321.296 C 254.824 323.850,249.301 326.230,240.287 328.560 C 236.391 329.568,233.928 330.409,234.814 330.430 C 239.964 330.553,253.255 325.706,256.908 322.373 C 261.402 318.271,260.389 318.190,248.184 321.669 C 203.239 334.482,155.918 334.312,120.610 321.211 C 111.746 317.922,111.085 317.728,113.487 319.121 M137.891 332.811 C 150.067 335.421,167.440 336.370,184.556 335.360 C 201.933 334.335,228.388 331.838,226.349 331.415 C 225.587 331.257,216.973 331.911,207.208 332.867 C 184.912 335.050,157.528 335.277,145.703 333.377 C 133.396 331.399,130.239 331.171,137.891 332.811 " stroke="none" fill-rule="evenodd"></path></g></svg>
