<svg width="24" height="24" viewBox="0 0 24 24" fill="none" xmlns="http://www.w3.org/2000/svg">
	<path fill-rule="evenodd" clip-rule="evenodd" d="M19.0859 16.9999V17.9999H17.5859V16.9999C17.5859 16.3095 17.0263 15.7499 16.3359 15.7499L12.3359 15.7499C11.6456 15.7499 11.0859 16.3095 11.0859 16.9999L11.0859 17.9999H9.58594L9.58594 16.9999C9.58594 15.4811 10.8172 14.2499 12.3359 14.2499L16.3359 14.2499C17.8547 14.2499 19.0859 15.4811 19.0859 16.9999Z" fill="currentColor"/>
	<path fill-rule="evenodd" clip-rule="evenodd" d="M14.3359 11.5C14.8882 11.5 15.3359 11.0523 15.3359 10.5C15.3359 9.94772 14.8882 9.5 14.3359 9.5C13.7837 9.5 13.3359 9.94772 13.3359 10.5C13.3359 11.0523 13.7837 11.5 14.3359 11.5ZM14.3359 13C15.7166 13 16.8359 11.8807 16.8359 10.5C16.8359 9.11929 15.7166 8 14.3359 8C12.9552 8 11.8359 9.11929 11.8359 10.5C11.8359 11.8807 12.9552 13 14.3359 13Z" fill="currentColor"/>
	<path fill-rule="evenodd" clip-rule="evenodd" d="M9.75 9.5C9.19772 9.5 8.75 9.05228 8.75 8.5C8.75 7.94772 9.19772 7.5 9.75 7.5C9.99016 7.5 10.2105 7.58466 10.3829 7.72575L11.4053 6.62651C10.9644 6.23663 10.3848 6 9.75 6C8.36929 6 7.25 7.11929 7.25 8.5C7.25 9.88071 8.36929 11 9.75 11V9.5ZM7.75 13.7499H8.75V12.2499H7.75C6.23122 12.2499 5 13.4811 5 14.9999V15.9999H6.5L6.5 14.9999C6.5 14.3095 7.05964 13.7499 7.75 13.7499Z" fill="currentColor"/>
</svg>
